<?xml version="1.0" standalone="no"?>
<!DOCTYPE svg PUBLIC "-//W3C//DTD SVG 20010904//EN"
 "http://www.w3.org/TR/2001/REC-SVG-20010904/DTD/svg10.dtd">
<svg version="1.0" xmlns="http://www.w3.org/2000/svg"
 width="400.000000pt" height="400.000000pt" viewBox="0 0 400.000000 400.000000"
 preserveAspectRatio="xMidYMid meet">
<metadata>
Created by potrace 1.11, written by Peter Selinger 2001-2013
</metadata>
<g transform="translate(0.000000,400.000000) scale(0.100000,-0.100000)"
fill="#000000" stroke="none">
<path d="M303 3968 c13 -18 27 -51 30 -72 4 -21 18 -56 32 -77 14 -21 25 -45
25 -53 0 -7 6 -18 13 -24 7 -6 28 -46 47 -89 18 -43 42 -85 53 -94 13 -11 23
-34 27 -68 6 -48 4 -54 -22 -81 -15 -17 -30 -30 -33 -30 -3 0 -18 26 -34 58
-16 31 -44 72 -61 90 -50 50 -78 43 -107 -27 -18 -43 -19 -43 -40 -24 -24 19
-27 31 -38 139 -10 94 -50 173 -131 253 l-64 64 0 -577 c0 -383 4 -584 10
-597 15 -27 50 -167 50 -199 0 -14 5 -31 12 -38 9 -9 7 -12 -10 -12 -11 0 -26
8 -32 18 -11 16 -11 16 -6 -1 3 -10 6 -22 6 -27 0 -5 12 -10 28 -12 15 -2 26
-8 25 -15 -2 -7 2 -13 8 -13 6 0 8 -9 4 -20 -4 -11 -2 -20 4 -20 6 0 11 -7 11
-15 0 -9 9 -34 20 -57 11 -22 17 -45 14 -49 -3 -5 -2 -15 3 -21 4 -7 8 -36 9
-64 1 -28 6 -60 12 -71 6 -11 9 -23 5 -26 -3 -4 2 -18 11 -31 20 -31 20 -36 2
-36 -8 0 -29 15 -45 33 -34 35 -39 26 -17 -28 8 -19 12 -35 8 -35 -4 0 -2 -4
4 -8 17 -11 36 -75 24 -82 -5 -3 -11 -16 -13 -28 -2 -12 -6 -24 -9 -28 -4 -3
2 -24 13 -47 10 -23 19 -50 19 -59 0 -10 4 -18 9 -18 5 0 15 -16 21 -35 6 -19
18 -35 26 -35 11 0 13 -7 8 -26 -5 -19 -4 -25 5 -20 6 4 11 2 11 -3 0 -6 -5
-11 -12 -11 -6 0 -1 -8 10 -19 26 -22 66 -107 57 -121 -3 -6 -2 -10 2 -10 5 0
22 -18 39 -39 16 -22 32 -37 37 -34 9 5 2 -41 -9 -58 -4 -7 -3 -9 3 -6 6 4 13
-5 15 -23 2 -16 1 -27 -3 -24 -9 5 -5 -53 6 -79 4 -10 5 -20 2 -23 -6 -6 7
-52 31 -104 8 -19 16 -48 17 -65 0 -17 4 -35 7 -41 4 -5 9 -34 13 -64 8 -71
34 -132 53 -125 12 4 12 1 -1 -18 -12 -19 -13 -27 -2 -48 11 -20 11 -25 -1
-29 -12 -5 -11 -11 5 -43 10 -20 16 -35 12 -33 -4 3 -13 -4 -20 -16 -7 -11 -8
-17 -2 -14 5 4 12 2 16 -3 3 -6 12 -8 20 -4 11 4 13 1 8 -13 -4 -12 -3 -15 5
-10 7 4 12 2 12 -3 0 -6 8 -11 18 -12 9 0 12 -3 6 -5 -8 -3 -6 -17 8 -45 14
-30 16 -44 8 -53 -7 -10 -6 -17 6 -26 18 -15 48 -70 38 -70 -4 0 -1 -7 6 -15
19 -23 40 -18 40 9 0 41 9 53 36 48 13 -2 24 -8 24 -13 0 -5 9 -9 20 -9 13 0
22 -9 26 -25 3 -14 10 -23 14 -20 9 5 23 -26 18 -41 -1 -5 3 -18 9 -29 6 -11
9 -28 8 -38 -2 -9 1 -15 5 -12 13 8 25 -16 26 -54 1 -32 0 -33 -12 -16 -8 10
-14 25 -14 32 0 7 -6 13 -13 13 -7 0 -33 21 -57 46 -25 25 -58 55 -73 66 l-29
21 17 -34 c10 -19 47 -62 83 -96 61 -59 64 -63 58 -97 -6 -30 -4 -36 11 -36
13 0 14 -3 5 -12 -7 -7 -12 -15 -12 -19 0 -4 89 -8 199 -9 l198 -1 23 93 c27
113 47 218 60 318 6 41 21 134 35 205 26 139 64 403 73 498 2 31 9 60 14 63 6
4 7 -41 2 -122 -10 -179 -12 -354 -3 -359 4 -3 3 -21 -1 -40 -4 -20 -4 -38 1
-41 12 -7 12 -44 0 -44 -5 0 -12 6 -14 13 -3 6 -5 -4 -5 -23 0 -19 2 -27 5
-17 4 14 8 16 19 6 8 -6 14 -21 15 -33 0 -20 1 -20 8 -1 5 11 6 25 4 32 -2 6
4 14 15 17 15 5 18 14 16 38 -7 56 11 18 23 -50 15 -90 16 -127 0 -140 -20
-17 -39 1 -32 30 4 16 1 29 -9 37 -13 11 -16 9 -22 -14 -4 -17 -11 -24 -21
-21 -8 3 -16 -2 -20 -12 -3 -9 -12 -24 -20 -33 -12 -14 -7 -17 42 -29 48 -12
57 -11 72 3 17 15 20 9 51 -91 56 -184 63 -205 89 -244 24 -35 29 -38 72 -38
56 0 78 14 86 55 5 28 5 29 -6 7 -12 -22 -47 -37 -83 -34 -41 3 -75 61 -78
133 -1 27 8 43 41 78 23 24 40 46 38 48 -2 1 -22 -7 -44 -19 -49 -27 -67 -18
-83 41 -14 50 -13 144 2 159 10 10 8 15 -8 27 -25 17 -40 112 -53 335 -8 136
-3 190 19 190 25 0 66 -85 100 -206 12 -44 41 -133 65 -199 24 -66 48 -148 55
-182 11 -63 35 -133 46 -133 3 0 4 6 1 14 -3 8 4 22 15 33 20 18 21 18 11 -2
-24 -47 -23 -90 3 -165 14 -41 25 -83 25 -93 0 -10 5 -15 11 -11 7 4 8 2 4 -5
-4 -6 -5 -25 -1 -41 l7 -30 186 2 186 3 11 43 c5 23 15 46 22 50 7 4 17 30 23
57 16 74 19 82 29 66 6 -10 10 -9 15 4 4 12 0 18 -14 22 -25 7 -25 14 0 46 45
56 65 134 81 307 24 256 28 341 34 590 8 304 16 405 38 449 13 25 14 44 5 102
-11 81 -5 119 18 119 8 0 13 -4 9 -9 -3 -6 2 -14 11 -19 14 -8 14 -12 2 -38
-14 -28 -14 -64 0 -64 4 0 13 4 21 9 9 6 22 5 34 -2 15 -9 21 -9 24 1 3 6 11
12 19 12 9 0 12 -5 9 -10 -3 -6 -1 -10 5 -10 6 0 9 -4 6 -9 -4 -5 4 -7 16 -3
20 5 21 3 10 -10 -18 -22 1 -32 28 -16 11 7 20 16 20 20 0 5 5 8 11 8 5 0 8
-4 5 -8 -5 -8 6 -8 87 2 20 2 39 1 41 -2 4 -7 -26 -39 -31 -34 -9 7 -23 0 -17
-9 3 -6 17 -9 30 -6 14 2 27 0 31 -6 3 -5 1 -7 -5 -3 -19 11 -25 -14 -8 -33 9
-10 14 -25 10 -35 -5 -14 4 -20 27 -18 13 2 88 -84 91 -104 4 -24 -85 -134
-108 -134 -9 0 -12 -5 -8 -11 4 -8 -1 -9 -15 -4 -14 4 -31 0 -47 -10 -24 -15
-25 -30 -3 -30 5 0 9 -3 9 -7 0 -5 0 -11 0 -16 0 -19 -51 -61 -67 -55 -13 5
-15 3 -9 -13 4 -10 8 -21 8 -24 2 -21 -5 -30 -23 -30 -16 0 -20 -5 -16 -20 3
-13 0 -20 -10 -20 -10 0 -12 -6 -8 -21 5 -14 4 -19 -4 -15 -7 5 -8 1 -4 -10 5
-13 3 -16 -10 -11 -12 5 -17 1 -17 -13 0 -11 -4 -20 -10 -20 -5 0 -9 -3 -9 -7
3 -20 -2 -26 -11 -13 -8 13 -10 13 -10 -1 0 -9 -7 -19 -15 -23 -10 -3 -15 1
-15 11 0 9 -2 14 -5 12 -2 -3 2 -45 10 -94 8 -50 15 -114 15 -144 0 -67 41
-373 78 -581 l27 -155 272 -3 c261 -2 273 -1 285 17 12 19 12 19 39 0 43 -30
49 -25 34 37 -7 31 -11 64 -10 73 2 9 4 20 4 25 1 4 7 6 15 3 10 -4 13 4 12
34 -1 52 13 54 30 4 12 -35 12 -41 -1 -51 -8 -6 -12 -14 -8 -17 3 -4 2 -7 -3
-7 -6 0 -10 -11 -10 -25 0 -27 7 -30 36 -15 16 9 18 7 14 -18 -3 -20 -2 -23 6
-12 5 8 10 11 11 5 0 -5 4 -1 8 9 4 11 18 21 30 23 12 2 29 9 37 17 12 12 10
15 -17 21 -17 4 -33 4 -36 1 -9 -8 -32 26 -33 47 0 9 7 17 15 17 8 0 16 8 16
18 1 9 2 23 3 31 1 19 43 24 50 6 3 -8 -2 -18 -11 -23 -14 -8 -13 -12 6 -31
11 -11 21 -28 21 -36 0 -8 11 -17 24 -21 28 -7 39 -36 25 -70 -6 -19 -5 -26 6
-30 8 -3 19 -3 24 1 14 8 53 -14 46 -26 -4 -6 24 -9 76 -8 71 1 82 4 86 20 3
11 12 19 19 19 8 0 14 7 14 15 0 8 -6 15 -12 15 -9 0 -9 3 1 9 12 8 13 15 4
34 -14 30 -10 36 22 29 19 -3 28 -14 36 -43 19 -63 59 -64 59 -1 -1 51 -19 78
-52 77 -17 -1 -28 4 -28 12 0 7 7 13 15 13 14 0 20 13 15 35 -1 5 8 1 20 -10
l22 -20 -6 41 c-5 25 -3 44 3 48 6 4 6 18 1 36 -5 17 -6 30 -2 30 3 0 -3 7
-14 15 -10 8 -15 15 -10 15 16 0 -47 60 -63 60 -8 0 -11 3 -8 7 4 3 2 12 -3
18 -6 7 -11 30 -12 52 -1 30 -5 40 -17 39 -16 -1 -22 22 -10 39 8 12 7 41 -3
50 -3 4 -16 -9 -29 -27 -13 -18 -28 -36 -33 -40 -6 -4 -4 -10 7 -14 9 -3 17
-16 17 -28 0 -20 -1 -19 -13 4 -8 14 -19 24 -25 23 -19 -4 -14 14 10 36 17 17
19 23 8 36 -9 11 -16 12 -25 5 -15 -12 -61 -7 -57 6 2 5 10 8 18 6 20 -4 18
15 -3 27 -12 6 -16 20 -15 45 2 22 -2 36 -9 36 -7 0 -18 8 -26 18 -13 15 -14
14 -9 -15 4 -24 2 -33 -8 -33 -8 0 -16 -9 -19 -20 -3 -11 -12 -20 -21 -20 -14
0 -20 18 -19 58 1 7 -12 21 -28 33 -17 12 -29 15 -29 9 0 -18 -38 -62 -66 -77
-21 -10 -30 -11 -43 -1 -29 22 -57 53 -64 71 -3 9 -11 17 -17 17 -19 0 -47 37
-52 67 -3 26 -1 29 15 25 18 -5 37 12 37 33 0 6 -11 15 -25 21 -20 10 -25 9
-30 -5 -3 -10 -12 -18 -20 -18 -8 0 -12 4 -9 9 3 4 0 8 -7 8 -10 0 -10 3 -1
12 10 10 15 10 22 -2 8 -12 10 -10 10 10 0 35 12 51 30 40 8 -5 21 -5 31 1 11
6 20 5 24 -1 3 -5 18 -10 33 -10 17 0 22 3 15 8 -9 5 -4 15 17 32 47 39 41 48
-45 71 -16 4 -37 3 -47 -2 -12 -7 -18 -6 -18 1 0 6 -7 4 -16 -4 -18 -19 -28
-21 -18 -4 5 7 2 9 -8 5 -12 -4 -14 -1 -11 14 3 10 9 19 14 19 15 0 10 47 -5
53 -8 3 -20 -1 -26 -9 -7 -8 -20 -14 -29 -14 -9 0 -22 -5 -28 -11 -7 -7 -12
-6 -16 5 -4 10 -1 16 8 16 8 0 15 7 15 15 0 18 5 18 31 5 16 -9 19 -7 19 10 0
11 -5 20 -11 20 -6 0 -17 7 -25 15 -14 13 -13 15 4 15 11 0 22 -7 26 -15 10
-26 76 -16 76 11 0 8 -7 17 -15 20 -19 8 -19 43 0 64 14 16 14 18 -4 23 -15 4
-20 0 -18 -12 1 -9 -2 -18 -8 -21 -14 -7 -18 31 -5 50 9 13 11 13 19 1 8 -12
12 -13 25 -2 13 11 14 17 4 29 -17 20 -18 83 -1 89 7 3 21 2 30 -2 16 -6 16
-8 -5 -24 -14 -10 -22 -25 -20 -36 3 -22 56 -54 84 -53 11 0 34 -3 52 -7 26
-6 32 -5 32 10 0 13 7 10 29 -14 18 -19 39 -31 54 -31 16 0 40 -15 69 -43 40
-40 102 -76 113 -65 3 3 -20 22 -50 42 -77 54 -108 109 -89 160 14 37 68 8 58
-31 -3 -11 -1 -23 4 -27 12 -7 72 4 72 13 0 4 -31 38 -70 76 -38 39 -70 76
-70 83 0 7 -8 4 -21 -9 -18 -18 -20 -28 -14 -72 5 -48 5 -51 -10 -33 -8 11
-15 16 -15 11 0 -4 -9 0 -20 10 -18 16 -20 16 -26 1 -5 -14 -12 -10 -40 21
-19 21 -34 43 -34 50 0 16 17 26 25 13 3 -5 17 -8 31 -5 13 3 36 7 50 11 19 3
24 8 16 16 -7 7 -7 19 0 39 12 33 16 35 33 12 10 -14 13 -8 19 37 7 53 32 110
49 110 4 0 17 -5 28 -11 18 -9 19 -12 5 -22 -8 -7 -21 -39 -30 -71 -12 -49
-13 -63 -2 -85 7 -14 11 -32 9 -38 -3 -8 5 -13 21 -13 21 0 26 -5 26 -24 0
-29 13 -40 38 -32 23 8 45 44 35 59 -4 7 -8 17 -8 22 -2 17 -18 50 -29 58 -7
5 -3 14 11 26 12 10 19 22 15 26 -4 5 -2 5 5 1 6 -3 16 1 21 10 5 9 14 14 21
10 16 -11 13 -26 -4 -20 -8 4 -15 1 -15 -4 0 -6 9 -14 20 -17 11 -3 20 -13 20
-21 0 -8 3 -14 8 -15 33 -5 78 -6 85 -2 4 3 3 11 -3 18 -15 18 2 27 35 19 21
-5 25 -3 25 16 0 14 -5 20 -13 17 -8 -3 -20 -1 -28 4 -11 7 -11 11 4 22 20 14
30 75 17 97 -5 7 -15 10 -25 6 -16 -6 -16 -5 -2 18 16 24 18 81 4 104 -10 14
-47 16 -47 2 0 -21 -49 -9 -70 17 -17 22 -20 35 -15 77 7 56 -5 82 -40 88 -11
2 -23 7 -26 12 -10 13 -49 -13 -49 -34 0 -10 -4 -21 -9 -24 -5 -3 -12 -23 -17
-43 -4 -21 -8 -41 -9 -45 -2 -5 -3 -33 -4 -64 -1 -34 -5 -53 -11 -49 -11 7 -6
170 8 225 13 54 34 80 62 80 l25 0 -27 23 c-38 32 -42 56 -23 170 18 109 39
167 61 167 23 0 24 -16 4 -55 -15 -30 -18 -51 -14 -89 3 -28 6 -64 5 -81 0
-23 6 -33 24 -42 23 -10 25 -9 25 17 0 16 7 36 16 44 9 10 17 37 18 65 2 27
11 61 20 76 10 15 13 24 7 21 -15 -10 -20 74 -6 107 4 9 3 36 -3 59 -6 24 -8
45 -4 48 6 4 7 33 3 93 0 9 -5 17 -9 17 -25 0 -78 -200 -62 -230 14 -26 12
-34 -4 -21 -24 20 -28 82 -10 186 9 55 18 107 19 115 1 8 7 26 12 40 14 32 7
43 -23 36 -14 -4 -24 -2 -24 4 0 6 -9 5 -22 -2 -28 -16 -38 -29 -32 -40 3 -4
0 -8 -5 -8 -6 0 -11 5 -11 10 0 19 -32 10 -37 -10 -3 -11 -9 -20 -13 -20 -4 0
-20 -11 -36 -25 -16 -14 -31 -25 -34 -25 -4 0 -12 -17 -19 -37 -8 -21 -22 -50
-32 -64 -10 -14 -16 -29 -13 -32 7 -7 -32 -47 -46 -47 -5 0 -10 -8 -10 -17 0
-52 -87 -137 -115 -113 -13 11 -35 -6 -35 -27 0 -20 -18 -16 -25 6 -9 30 12
70 48 91 43 25 114 109 123 144 3 15 14 31 23 35 9 5 34 36 55 68 22 32 47 69
56 83 9 14 41 63 70 110 29 47 56 87 59 90 3 3 35 61 70 130 35 69 69 132 77
141 8 8 14 18 14 22 0 3 20 35 45 71 25 37 45 71 45 77 0 6 6 9 13 6 6 -2 11
-13 10 -23 -8 -73 -4 -367 6 -377 8 -8 11 104 11 421 l0 432 -1405 0 c-1372 0
-1405 0 -1396 -19 6 -10 31 -40 56 -66 38 -38 46 -53 43 -78 -2 -22 -11 -36
-31 -47 -25 -14 -30 -13 -60 4 -17 11 -68 39 -112 64 -132 74 -200 115 -207
126 -5 7 -109 12 -308 14 l-302 3 25 -33z m1232 -78 c-6 -9 -9 -9 -16 1 -10
17 0 34 13 21 6 -6 7 -16 3 -22z m329 -52 c-3 -4 -9 -8 -15 -8 -5 0 -9 4 -9 8
0 5 7 9 15 9 8 0 12 -4 9 -9z m1491 -107 c3 -5 -2 -17 -11 -25 -8 -9 -13 -16
-9 -16 4 0 0 -7 -9 -15 -33 -34 -58 -3 -31 39 17 26 49 35 60 17z m493 -38 c2
-8 -5 -13 -17 -13 -12 0 -21 6 -21 16 0 18 31 15 38 -3z m-2898 -7 c0 -7 -9
-16 -20 -19 -19 -5 -28 12 -13 26 11 12 33 7 33 -7z m2841 -8 c19 -24 25 -58
10 -58 -5 0 -12 -15 -15 -32 -3 -18 -21 -51 -40 -73 -31 -36 -36 -39 -62 -30
-16 6 -29 15 -30 20 -3 35 -21 71 -46 94 l-29 26 29 28 c24 23 40 29 86 31 31
2 60 7 63 10 10 9 13 8 34 -16z m173 -59 c-9 -30 -19 -48 -21 -41 -5 14 26
106 33 99 2 -2 -3 -28 -12 -58z m-2692 14 c8 -10 22 -36 30 -58 69 -173 95
-217 188 -323 89 -100 127 -139 196 -204 35 -32 67 -72 124 -156 23 -35 54
-71 69 -80 57 -36 111 -85 128 -117 27 -51 190 -234 229 -257 20 -12 41 -37
53 -61 27 -61 133 -190 176 -216 l38 -22 -7 -112 c-11 -165 -30 -307 -49 -351
-10 -21 -33 -96 -51 -165 -45 -166 -94 -300 -117 -319 -12 -11 -15 -18 -8 -23
8 -5 2 -38 -18 -108 -17 -55 -26 -102 -22 -103 11 -4 -65 -153 -77 -153 -15 0
-136 -106 -129 -113 3 -3 11 0 17 6 14 14 42 16 34 3 -3 -4 -8 -27 -11 -51 -7
-54 -56 -147 -101 -191 -44 -42 -46 -18 -2 35 17 21 32 47 33 57 1 11 14 33
30 49 l29 31 -29 24 c-35 28 -45 31 -45 10 0 -24 -25 -17 -48 13 -45 60 -151
223 -157 241 -5 18 -4 19 25 8 25 -9 33 -9 39 2 7 10 13 10 29 2 33 -18 39
-12 12 10 -38 30 -100 60 -110 54 -6 -3 -10 -13 -10 -21 0 -21 -16 -17 -33 9
-19 29 -137 170 -149 178 -17 11 -29 72 -15 81 6 4 8 8 2 9 -5 1 3 4 19 8 41
8 35 24 -12 35 l-39 9 -7 60 c-7 65 -6 195 1 139 2 -18 9 -30 14 -27 5 4 9 2
9 -4 0 -5 -5 -11 -12 -13 -18 -6 0 -28 23 -28 11 0 22 -7 25 -15 4 -8 11 -15
16 -15 7 0 7 4 0 13 -7 8 -7 18 -2 27 5 9 5 19 -2 27 -6 8 -13 35 -15 61 -2
26 -10 52 -19 58 -13 10 -13 12 2 18 9 3 14 12 11 20 -3 8 2 16 14 19 23 6 86
-10 94 -24 4 -5 12 -6 18 -2 7 4 19 8 27 8 8 0 16 7 18 15 2 12 -13 18 -61 27
-35 7 -77 19 -93 28 -16 8 -32 15 -35 15 -14 0 -16 -38 -4 -60 11 -21 10 -28
-8 -52 -11 -15 -24 -28 -27 -28 -3 0 -12 33 -19 74 -24 133 -31 108 -31 -111
0 -131 -4 -213 -10 -213 -5 0 -51 39 -101 88 -64 61 -92 95 -94 114 -2 15 -6
32 -10 37 -3 6 1 11 10 11 34 0 7 24 -40 37 -35 8 -51 9 -56 1 -16 -25 -209
142 -209 181 0 11 -5 23 -10 26 -18 11 -11 35 8 28 43 -14 -30 28 -92 53 -49
20 -80 42 -117 81 -28 30 -49 59 -46 66 3 8 -4 24 -14 38 -10 13 -19 29 -19
36 0 6 -15 22 -33 34 -43 31 -47 39 -32 63 7 12 23 52 34 91 12 38 30 79 40
90 26 28 84 147 110 226 12 37 31 75 43 85 20 19 68 105 68 123 0 6 24 46 54
89 30 44 57 93 61 108 3 16 24 56 45 89 21 33 51 80 66 103 41 67 104 294 104
378 0 56 14 69 42 37z m1845 -301 c6 -4 13 -16 15 -27 2 -15 -5 -22 -31 -31
-67 -22 -91 13 -33 49 31 19 33 19 49 9z m376 -143 c28 -12 35 -25 16 -31 -6
-2 -12 -19 -14 -38 -2 -27 -7 -36 -24 -38 -24 -4 -71 41 -71 69 0 10 -9 21
-20 24 -19 6 -26 25 -15 37 7 7 92 -9 128 -23z m-63 -160 c0 -12 -29 -24 -37
-16 -3 4 -3 13 0 21 6 16 37 11 37 -5z m-70 -44 c0 -8 -9 -15 -19 -15 -24 0
-36 16 -19 23 24 10 38 7 38 -8z m-3274 -153 c15 -26 54 -87 87 -136 32 -50
60 -101 62 -114 1 -14 -1 -20 -6 -15 -19 19 -199 318 -199 330 0 14 32 -23 56
-65z m3184 -360 c0 -4 -14 -24 -31 -45 -18 -22 -29 -46 -27 -59 2 -15 -5 -26
-22 -35 -24 -11 -43 -27 -152 -123 -51 -45 -78 -47 -78 -7 0 17 12 34 38 53
20 15 62 51 92 80 69 64 163 142 173 143 4 1 7 -2 7 -7z m-2922 -97 c-3 -3 -9
2 -12 12 -6 14 -5 15 5 6 7 -7 10 -15 7 -18z m135 -71 c86 -90 111 -124 89
-124 -13 0 -122 112 -122 125 0 6 -16 26 -35 45 -32 31 -43 50 -30 50 3 0 47
-43 98 -96z m-95 10 c-4 -3 -12 5 -18 18 -12 22 -12 22 6 6 10 -10 15 -20 12
-24z m2512 -182 c0 -22 -177 -212 -197 -212 -7 0 -13 -4 -13 -8 0 -8 -43 -32
-55 -32 -3 0 -5 9 -5 19 0 24 237 237 268 241 1 0 2 -4 2 -8z m-326 -144 c39
-58 42 -88 9 -88 -10 0 -29 -7 -41 -16 l-22 -15 1 108 c1 59 4 99 7 88 4 -11
24 -46 46 -77z m322 73 c5 -4 45 -27 89 -51 44 -23 87 -48 95 -56 12 -12 12
-14 -5 -14 -40 0 -205 98 -205 121 0 11 13 12 26 0z m-11 -51 c18 -19 17 -20
-1 -20 -20 0 -44 17 -44 32 0 15 27 8 45 -12z m-2672 -92 c-3 -10 -8 -16 -11
-13 -9 8 -12 38 -5 48 9 14 21 -13 16 -35z m2700 21 c27 -14 77 -60 77 -71 0
-20 -32 -5 -77 37 -46 42 -46 58 0 34z m-53 -29 c0 -5 -4 -10 -10 -10 -5 0
-10 5 -10 10 0 6 5 10 10 10 6 0 10 -4 10 -10z m-59 -31 c16 -8 18 -13 8 -25
-17 -20 -26 -17 -31 11 -6 28 -4 29 23 14z m1039 -4 c0 -8 -4 -15 -8 -15 -5 0
-9 7 -9 15 0 8 4 15 9 15 4 0 8 -7 8 -15z m27 -50 c18 -29 16 -45 -7 -45 -11
0 -20 -4 -20 -10 0 -5 -4 -10 -10 -10 -5 0 -10 11 -10 25 0 16 6 25 15 25 13
0 14 4 5 20 -15 28 10 23 27 -5z m-1086 -12 c10 -11 10 -14 2 -9 -8 4 -13 2
-13 -5 0 -8 -3 -9 -13 0 -8 6 -17 8 -20 4 -4 -3 -7 -1 -7 5 0 9 14 19 31 21 4
1 13 -7 20 -16z m-2462 -64 c-14 -8 -49 6 -49 21 0 5 14 4 31 -2 22 -7 27 -13
18 -19z m3510 -36 c-8 -9 -16 -10 -22 -4 -13 13 0 31 19 24 11 -4 12 -8 3 -20z
m79 -26 c-1 -2 4 -12 12 -22 13 -16 13 -18 0 -13 -8 2 -17 15 -18 29 -2 13 -1
21 3 17 4 -3 5 -8 3 -11z m-3544 -51 c-3 -8 4 -21 16 -29 14 -9 17 -16 9 -19
-9 -3 -9 -11 0 -33 7 -18 10 -21 7 -8 -2 12 2 27 9 33 9 8 16 2 26 -22 7 -18
14 -37 14 -43 0 -14 39 -51 72 -69 l28 -15 -38 -1 c-65 0 -116 37 -148 109
-19 44 -25 92 -12 104 11 12 23 7 17 -7z m2087 -59 c-13 -13 -15 11 -4 40 7
16 8 15 11 -6 2 -13 -1 -28 -7 -34z m928 -16 c16 -10 6 -31 -15 -31 -8 0 -14
9 -14 20 0 22 7 25 29 11z m-179 -132 c0 -4 -7 -9 -15 -13 -9 -3 -15 0 -15 8
0 7 7 13 15 13 8 0 15 -4 15 -8z m80 -19 c0 -5 -4 -10 -10 -10 -5 0 -10 5 -10
10 0 6 5 10 10 10 6 0 10 -4 10 -10z m310 -16 c0 -8 -4 -12 -10 -9 -5 3 -10
10 -10 16 0 5 5 9 10 9 6 0 10 -7 10 -16z m-3035 -14 c4 -6 -6 -10 -23 -10
-18 0 -32 -6 -36 -16 -5 -13 -2 -15 15 -11 16 4 19 3 11 -5 -11 -11 -5 -39 12
-50 7 -5 5 -13 -6 -25 -17 -16 -18 -15 -32 18 -7 19 -17 48 -20 66 -6 27 -4
32 16 36 42 8 57 7 63 -3z m2705 -260 c0 -5 -7 -10 -16 -10 -9 0 -23 -8 -31
-17 -16 -20 -7 3 10 25 11 14 37 16 37 2z m-70 -39 c-4 -16 -5 -33 -2 -37 4
-5 -1 -2 -10 5 -10 7 -18 18 -18 24 0 8 27 35 37 37 1 0 -2 -13 -7 -29z m80
-1 c0 -5 -4 -10 -10 -10 -5 0 -10 5 -10 10 0 6 5 10 10 10 6 0 10 -4 10 -10z
m-1770 -260 c0 -5 -2 -10 -4 -10 -3 0 -8 5 -11 10 -3 6 -1 10 4 10 6 0 11 -4
11 -10z m2090 -143 c8 -18 37 -46 65 -64 27 -18 44 -33 38 -33 -7 0 -10 -8 -7
-17 2 -10 -1 -8 -7 5 -14 25 -35 24 -32 -2 1 -14 -5 -16 -33 -13 -19 3 -34 1
-34 -4 0 -5 5 -9 11 -9 5 0 7 -5 3 -12 -5 -8 -2 -9 9 -5 14 5 15 3 4 -13 -6
-11 -18 -20 -25 -20 -9 0 -12 -6 -8 -16 3 -8 2 -12 -4 -9 -6 3 -11 1 -11 -4
-3 -26 -4 -30 -11 -36 -3 -4 -13 6 -22 22 -13 26 -17 126 -7 210 1 12 40 53
50 53 3 0 13 -15 21 -33z m-90 3 c0 -11 -7 -20 -15 -20 -13 0 -13 3 -3 20 7
11 14 20 15 20 2 0 3 -9 3 -20z m-23 -65 c-4 -8 -11 -15 -17 -15 -14 0 -13 27
3 33 16 6 21 1 14 -18z m-93 3 c-5 -8 -2 -9 12 -4 10 4 15 4 11 0 -4 -4 1 -13
11 -21 9 -8 11 -12 5 -8 -7 3 -13 1 -13 -6 0 -7 -9 -2 -20 11 -17 20 -19 40
-4 40 3 0 2 -5 -2 -12z m63 -87 c0 -11 -5 -18 -9 -15 -4 3 -5 11 -1 19 7 21
12 19 10 -4z m303 9 c0 -5 -2 -10 -4 -10 -3 0 -8 5 -11 10 -3 6 -1 10 4 10 6
0 11 -4 11 -10z m95 -29 c3 -5 1 -12 -5 -16 -5 -3 -10 1 -10 9 0 18 6 21 15 7z
m-1970 -111 c-21 -21 -42 -37 -47 -34 -13 8 -9 24 5 22 6 -2 11 3 9 10 -1 8 2
11 7 8 5 -3 20 3 32 14 39 31 36 23 -6 -20z m1653 -94 c-2 -19 -5 -32 -7 -30
-2 2 -12 -3 -22 -12 -10 -9 -23 -14 -30 -12 -16 5 -21 55 -9 93 5 17 12 43 15
59 l6 29 25 -46 c15 -29 23 -59 22 -81z m-1128 91 c0 -7 -7 -22 -15 -33 -13
-17 -14 -16 -4 14 11 33 19 41 19 19z m1532 -62 c-4 -5 -8 -2 -10 8 -2 9 -8
15 -13 12 -5 -3 -6 1 -3 10 6 14 8 14 19 -2 7 -10 10 -22 7 -28z m12 -23 c3
-5 -1 -9 -9 -9 -8 0 -12 4 -9 9 3 4 7 8 9 8 2 0 6 -4 9 -8z m-324 -124 c0 -12
-28 -9 -36 3 -3 6 0 15 7 20 13 7 28 -5 29 -23z m365 -76 c-3 -3 -11 0 -18 7
-9 10 -8 11 6 5 10 -3 15 -9 12 -12z m-334 -5 c-1 -12 -15 -9 -19 4 -3 6 1 10
8 8 6 -3 11 -8 11 -12z"/>
<path d="M1824 2417 c-5 -7 -13 -20 -17 -29 -5 -14 -1 -18 19 -18 29 0 43 26
23 45 -11 10 -17 11 -25 2z"/>
<path d="M2320 1660 c-8 -5 -34 -10 -57 -10 -23 0 -44 -4 -48 -9 -7 -12 26
-31 55 -31 17 0 20 -4 15 -20 -8 -25 15 -27 44 -2 26 21 40 82 20 82 -8 0 -21
-5 -29 -10z"/>
<path d="M1763 1620 c2 -21 -4 -27 -43 -38 -65 -19 -75 -26 -75 -55 -1 -17 7
-29 23 -36 14 -7 20 -16 16 -24 -5 -8 -2 -8 9 2 14 11 22 11 49 0 18 -8 36
-13 40 -11 4 1 4 -8 -1 -21 -13 -33 46 -150 77 -152 12 -1 22 1 22 5 0 4 7 7
15 8 8 1 22 3 30 4 8 1 12 5 9 10 -3 4 0 8 7 8 8 0 8 4 -2 16 -7 8 -21 13 -31
11 -21 -6 -58 40 -42 51 15 12 15 32 -1 32 -8 0 -15 7 -15 15 0 9 -6 12 -17 8
-14 -5 -13 -1 5 19 15 17 20 28 13 33 -6 3 -11 15 -11 25 0 10 -6 20 -12 23
-10 3 -10 7 1 20 8 11 9 17 3 17 -7 0 -9 7 -5 17 4 10 2 14 -5 9 -6 -3 -14 -1
-17 5 -4 5 -13 8 -20 5 -8 -3 -16 0 -19 7 -2 7 -4 1 -3 -13z m101 -306 c5 -14
4 -15 -9 -4 -17 14 -19 20 -6 20 5 0 12 -7 15 -16z"/>
<path d="M1876 1598 c3 -4 11 -5 19 -1 21 7 19 12 -4 10 -11 0 -18 -5 -15 -9z"/>
<path d="M1910 1581 c0 -5 7 -12 16 -15 8 -3 12 -11 8 -17 -5 -8 -3 -9 5 -5 9
6 8 13 -5 27 -19 21 -24 23 -24 10z"/>
<path d="M1540 1397 c0 -8 7 -14 15 -14 11 0 12 4 4 14 -6 7 -13 13 -15 13 -2
0 -4 -6 -4 -13z"/>
<path d="M1961 1255 c-18 -8 -46 -15 -62 -15 -28 0 -47 -15 -34 -28 4 -4 30
-6 58 -5 30 1 55 -4 60 -10 11 -18 46 28 40 53 -6 24 -16 24 -62 5z"/>
<path d="M3595 590 c4 -6 11 -8 16 -5 14 9 11 15 -7 15 -8 0 -12 -5 -9 -10z"/>
<path d="M3980 3070 c0 -25 4 -39 10 -35 6 3 10 19 10 35 0 16 -4 32 -10 35
-6 4 -10 -10 -10 -35z"/>
<path d="M3764 2986 c-3 -8 -13 -12 -25 -9 -23 6 -25 -9 -4 -27 8 -7 15 -9 15
-5 0 4 6 2 14 -4 18 -15 40 11 31 39 -7 23 -23 26 -31 6z"/>
<path d="M3976 2880 c4 -30 10 -84 14 -120 7 -63 7 -61 9 36 1 77 -3 105 -14
120 -15 17 -15 15 -9 -36z"/>
<path d="M3860 2819 c0 -5 5 -7 10 -4 6 3 10 8 10 11 0 2 -4 4 -10 4 -5 0 -10
-5 -10 -11z"/>
<path d="M10 2355 c-16 -19 -10 -19 26 0 25 13 26 15 8 15 -12 0 -27 -7 -34
-15z"/>
<path d="M3981 1987 c-7 -10 -20 -17 -27 -17 -8 0 -14 -4 -14 -10 0 -12 30
-13 48 -1 8 5 12 16 10 26 -3 17 -4 17 -17 2z"/>
<path d="M3 1850 c0 -119 0 -121 7 -47 4 43 12 83 18 89 6 6 22 4 47 -6 34
-15 36 -15 24 0 -7 8 -29 24 -50 35 -21 10 -40 27 -42 36 -3 10 -5 -38 -4
-107z"/>
<path d="M141 1954 c0 -11 3 -14 6 -6 3 7 2 16 -1 19 -3 4 -6 -2 -5 -13z"/>
<path d="M6 1630 c1 -52 3 -117 4 -145 l2 -50 9 55 c13 81 13 80 48 67 22 -8
35 -8 53 1 21 11 21 12 2 7 -14 -4 -33 4 -55 22 -19 15 -36 28 -37 29 -2 1
-10 26 -17 56 l-12 53 3 -95z"/>
<path d="M3770 1621 c0 -5 6 -14 14 -20 10 -9 15 -8 19 3 3 8 -1 17 -9 20 -21
8 -24 8 -24 -3z"/>
<path d="M3830 1592 c0 -5 9 -17 20 -27 22 -20 26 -14 10 16 -11 19 -30 26
-30 11z"/>
<path d="M3823 1534 c-3 -10 5 -26 22 -42 l28 -27 -7 25 c-3 14 -6 30 -6 36 0
19 -30 25 -37 8z"/>
<path d="M3987 1523 c-11 -10 -8 -43 3 -43 6 0 10 11 10 25 0 26 -2 29 -13 18z"/>
<path d="M3920 1502 c0 -4 9 -14 20 -22 22 -16 27 -45 9 -56 -7 -4 -7 -10 -1
-16 7 -7 16 -6 26 5 21 21 20 24 -10 64 -23 31 -44 43 -44 25z"/>
<path d="M3822 1438 c-13 -13 -16 -38 -4 -38 23 1 52 50 29 50 -7 0 -18 -5
-25 -12z"/>
<path d="M3973 1293 c-31 -6 -29 -23 2 -23 16 0 25 6 25 15 0 8 -1 14 -2 14
-2 -1 -13 -4 -25 -6z"/>
<path d="M23 1128 c-2 -97 -1 -100 10 -58 13 47 14 47 72 34 l29 -7 -37 33
c-21 18 -46 48 -55 67 l-18 34 -1 -103z"/>
<path d="M3642 1012 c3 -16 79 -60 106 -61 30 -2 7 21 -49 49 -51 25 -60 27
-57 12z"/>
<path d="M3771 952 c-14 -27 -14 -52 0 -52 6 0 8 7 5 16 -4 9 -1 23 5 31 7 7
9 16 6 19 -3 3 -10 -3 -16 -14z"/>
<path d="M3720 804 c0 -8 5 -12 10 -9 6 4 8 11 5 16 -9 14 -15 11 -15 -7z"/>
<path d="M3610 770 c0 -5 7 -10 15 -10 8 0 15 5 15 10 0 6 -7 10 -15 10 -8 0
-15 -4 -15 -10z"/>
<path d="M3740 767 c0 -8 -6 -17 -12 -19 -7 -3 -3 -7 9 -10 34 -9 47 6 23 27
-17 15 -20 16 -20 2z"/>
<path d="M3886 757 c3 -10 9 -15 12 -12 3 3 0 11 -7 18 -10 9 -11 8 -5 -6z"/>
<path d="M26 745 c-3 -9 -6 -51 -5 -93 1 -70 2 -73 10 -34 10 52 17 65 33 59
7 -3 19 -1 27 4 12 7 11 9 -2 9 -8 0 -24 16 -36 36 -16 29 -21 32 -27 19z"/>
<path d="M3800 730 c0 -5 5 -10 11 -10 5 0 7 5 4 10 -3 6 -8 10 -11 10 -2 0
-4 -4 -4 -10z"/>
<path d="M12 545 c0 -16 2 -22 5 -12 2 9 2 23 0 30 -3 6 -5 -1 -5 -18z"/>
<path d="M1495 500 c3 -5 8 -10 11 -10 2 0 4 5 4 10 0 6 -5 10 -11 10 -5 0 -7
-4 -4 -10z"/>
<path d="M570 470 c-9 -6 -10 -10 -3 -10 6 0 15 5 18 10 8 12 4 12 -15 0z"/>
<path d="M1403 343 c-3 -10 -7 -21 -9 -24 -2 -3 3 -18 11 -33 8 -16 10 -24 3
-20 -7 5 -9 2 -5 -9 3 -9 1 -18 -6 -20 -9 -3 -9 -9 0 -25 8 -13 9 -22 2 -24
-5 -2 -12 -28 -14 -57 -3 -30 -7 -56 -10 -59 -3 -3 -15 3 -26 14 -22 19 -22
19 -8 -3 15 -25 75 -53 112 -53 13 0 27 -4 33 -9 5 -6 19 -1 34 12 22 19 26
32 28 82 1 41 -2 55 -8 45 -8 -12 -10 -9 -10 13 0 15 -6 27 -12 27 -9 0 -8 4
2 11 11 8 12 12 3 15 -8 4 -9 13 -3 30 8 20 5 31 -12 54 -12 17 -31 32 -42 36
-12 3 -29 8 -39 10 -11 4 -20 -1 -24 -13z m14 -25 c-3 -8 -6 -5 -6 6 -1 11 2
17 5 13 3 -3 4 -12 1 -19z"/>
<path d="M30 335 c0 -8 -4 -15 -10 -15 -5 0 -9 -17 -9 -37 1 -21 3 -29 6 -18
11 49 13 51 33 25 24 -30 25 -24 5 24 -16 38 -25 46 -25 21z"/>
<path d="M2407 324 c-4 -4 -7 -14 -7 -23 0 -11 3 -12 11 -4 6 6 10 16 7 23 -2
6 -7 8 -11 4z"/>
<path d="M671 90 c-8 -4 -11 -15 -8 -23 3 -8 -1 -23 -8 -34 -21 -27 -18 -33
16 -33 31 0 31 0 26 45 -5 52 -8 57 -26 45z"/>
<path d="M3940 20 c0 -19 3 -21 12 -12 9 9 9 15 0 24 -9 9 -12 7 -12 -12z"/>
</g>
</svg>
